<svg version="1.2" xmlns="http://www.w3.org/2000/svg" viewBox="0 -117 676 676" width="676" height="676">
	<style>
		.s0 { fill: #4074d5 } 
		.s1 { fill: #ffffff } 
	</style>
	<g id="Layer 1">
		<path class="s0" d="m17.7-53.83c9.68-0.6 12.38 1.67 21.73 3.6 5.97 1.23 12.61 2.43 18.65 3.48q39.57 6.99 79.45 11.91c100.22 11.66 201.28 14.49 302.01 8.48 61.87-3.48 123.48-10.73 184.47-21.7 4.67-0.88 9.19-1.72 13.82-2.79 4.02-0.94 9.42-2.74 13.44-3.07 3.34-0.28 6.71 0.21 9.83 1.44 5.43 2.2 9.76 6.49 12.02 11.9 4.29 10.6-1.29 19.58-3.26 29.76-4.39 22.73-7.36 46.16-9.45 69.22-8.6 97.47-9.58 195.46-2.92 293.08 2.64 35.65 5.99 73.87 13.76 108.89 2.05 9.21 6.79 15.82 2.02 25.79-3.23 6.75-7.36 9.68-14.08 12.19-1.88 0.35-5.48 0.84-7.27 0.41-17.78-4.26-35.39-7.01-53.48-9.69-47.84-7.17-95.97-12.25-144.26-15.23-93.95-5.9-188.21-4.61-281.97 3.88-36.4 3.12-72.69 7.52-108.78 13.18-10.31 1.6-22.35 3.1-32.36 6.43-12.74 4.24-25.85-0.11-30.17-13.83-2.65-8.45 1.2-15.82 3.1-23.97 1.57-6.7 3.16-13.81 4.27-20.65 8.33-53.54 11.14-107.22 12.58-161.3 1.98-65.52 0.45-131.11-4.58-196.48-2.04-25.27-4.53-53.61-8.6-78.62q-1.26-7.93-3.33-15.69c-1.47-5.55-3.32-10.81-3.91-16.57-1.24-12.14 5.75-20.9 17.27-24.05z"/>
		<path class="s1" d="m457.58 325.23c-13.7 6.87-26.27 12.41-41.12 16.69-63.73 18.37-142.46 13.86-201.37-17.91-25.48-13.99-50.63-35.59-58.61-64.39-18.17-65.52 49.54-108.58 103.81-123.31 62.85-17.05 144.81-13.3 202.32 19.16 4.59 2.32 9.89 6.18 14.11 9.24 17.54 12.71 34.09 29.49 40.93 50.55 6.52 20.06 4.17 40.8-5.43 59.46-10.66 20.71-33.66 40.95-54.64 50.51z"/>
		<path class="s0" d="m331.9 154.27c47.01-3.12 87.68 32.4 90.9 79.41 3.22 47-32.23 87.74-79.22 91.06-47.14 3.32-88.02-32.24-91.25-79.38-3.23-47.14 32.42-87.95 79.57-91.09z"/>
		<path class="s1" d="m316.12 199.12c1.24-0.07 2.55-0.18 3.78-0.04 2.63 0.3 56.64 32.89 58.85 35.63 1.34 1.65 1.93 4.41 1.42 6.47-1.26 5.08-20.6 15.87-25.5 19.06-4.91 3.11-32.75 22.05-36.3 21.77-1.77-0.14-3.18-1.14-4.28-2.48-0.99-1.2-1.3-2.23-1.47-3.75-1.19-11.06-0.35-27.6-0.39-39.09-0.03-9.24-1.02-23.82 0.22-32.56 0.34-2.44 1.8-3.63 3.67-5.01z"/>
		<path class="s1" d="m462.61 155.47c0.56-7.17 3.86-16.2 6.07-23.3 9.07-29.05 22.49-52.53 42.03-75.9 13.95-18.07 34.64-34.51 58.57-33.94 10.26 0.24 21.51 7.15 28.06 15.02 17.38 20.87 13.63 53.05 13.52 78.69l-0.25 82.96 0.21 120.17-0.02 36.3c-0.02 23.07 0.58 45.15-18.91 61.78-17.7 15.1-43.77 12.06-62.82 1.23-3.62-2.05-7.1-4.98-10.66-7.18-33.98-20.17-50.25-49.19-60.83-86.07 20.97-9.56 43.98-29.8 54.64-50.51 9.6-18.66 11.95-39.4 5.43-59.46-6.84-21.06-23.39-37.84-40.93-50.55-4.22-3.06-9.52-6.92-14.11-9.24z"/>
		<path class="s1" d="m80.64 261.16c6.97-0.35 17.4 1.75 22.72 6.51 5.18 5.11 9.04 12.28 13.12 18.33 38.43 56.91 102.75 93.65 169.57 105.82 10.23 1.87 19.74 2.07 30.21 2.85 5.09 3.24 8.83 7.65 10.08 13.69 1.06 5.23-0.04 10.67-3.04 15.09-3.11 4.55-7.3 6.81-12.61 7.78-12.26 0.62-27.21 0.18-39.67 0.12l-68.15-0.24-55.77 0.27c-9.56 0.05-19.08 0.29-28.64-0.08-22.85-0.88-40.86-15.41-48.76-36.52-2.17-5.79-3.59-11.82-4.23-17.97-1.29-13.6-0.18-33.63-0.57-47.83 0.16-15.72-0.49-31.54 0.19-47.25 0.47-10.77 5.62-17.22 15.55-20.57z"/>
		<path class="s1" d="m332.52 16.32c17.05-1.21 39.61 3.05 53.64 13.54 10.16 7.59 15.14 20.34 5.9 31.11-12.04 14.06-31.31 17.26-48.79 19.04-18.69 0.42-38.96-1.77-54.45-13.33-10.74-8.02-14.34-21.81-4.61-32.34 12-12.99 31.37-16.86 48.31-18.02z"/>
	</g>
</svg>