<svg width="472" height="385" viewBox="0 0 472 385" fill="none" xmlns="http://www.w3.org/2000/svg">
<path d="M471.847 253.603H0.847046V32.6027H471.847V253.603ZM221.347 48.6701C196.014 34.0439 164.347 52.3269 164.347 81.5793V197.626C164.347 226.879 196.014 245.162 221.347 230.535L321.847 172.512C347.18 157.886 347.18 121.32 321.847 106.694L221.347 48.6701Z" fill="white"/>
<path d="M299.039 185.679C297.589 188.98 296.435 192.429 295.605 195.991L295.372 196.986C294.023 194.607 292.708 192.386 291.173 190.22L299.039 185.679ZM19.1628 0.245697C27.6426 -0.211295 39.3496 0.110037 48.0026 0.106049L101.567 0.0884705L267.888 0.0972595L392.096 0.096283L431.639 0.0562439C438.926 0.0422403 446.451 -0.132551 453.71 0.257416C461.932 0.908407 470.369 8.12951 471.099 16.6764C471.837 25.3202 471.46 35.0794 471.449 43.8902L471.375 102.381C463.799 100.366 455.972 99.4544 448.135 99.6754C420.423 100.643 400.77 111.053 382.266 130.864C375.624 138.895 373.329 143.129 369.122 152.681C358.738 150.126 348.525 149.869 338.706 152.278C344.382 136.011 338.764 116.461 321.847 106.694L221.347 48.6705C196.014 34.0444 164.348 52.3265 164.347 81.5787V123.139C157.318 108.758 146.701 96.3731 133.464 87.2164C113.007 72.7294 87.5548 67.145 62.9118 71.735C34.373 76.885 16.3584 92.156 0.465485 115.199L0.457672 48.6695C0.458671 41.9466 0.417041 35.2147 0.484039 28.4918C0.563039 20.5048 0.114524 12.8077 5.88052 6.45273C9.31044 2.70495 14.088 0.472768 19.1628 0.245697Z" fill="#3D4AFE"/>
<path d="M299.038 185.68C297.589 188.98 296.435 192.43 295.605 195.991L295.372 196.986C294.024 194.607 292.707 192.386 291.173 190.221L299.038 185.68ZM278.741 49.2309C328.363 43.4909 376.985 80.8427 382.266 130.864C375.624 138.895 373.329 143.13 369.122 152.682C358.738 150.127 348.525 149.87 338.705 152.279C344.382 136.011 338.764 116.461 321.847 106.694L241.858 60.5121C253.296 54.5172 265.925 50.7132 278.741 49.2309Z" fill="#F9642E"/>
<path d="M0.473039 270.63L471.453 270.511C471.425 283.742 474.499 305.668 465.285 315.568C460.291 319.572 456.754 320.621 450.6 320.642C411.236 320.779 371.834 320.67 332.473 320.68C272.34 321.115 212.205 321.131 152.072 320.728L60.437 320.692L33.095 320.698C21.311 320.716 4.42604 322.46 1.15804 305.966C-0.848963 295.835 0.332039 281.278 0.473039 270.63Z" fill="#0B053A"/>
<path d="M361.739 185.27C379.375 183.922 395.701 197.196 410.268 206.147L471.456 243.609L471.353 261.847L355.597 261.658L245.404 261.907C250.81 249.706 263.694 244.048 274.54 237.031L307.355 215.599L331.743 199.498C342.397 192.438 348.787 187.284 361.739 185.27Z" fill="#0B053A"/>
<path d="M181.847 329.518C193.896 329.211 207.45 329.561 219.597 329.593L290.336 329.601C290.167 350.708 297.288 368.86 321.151 372.227C325.932 372.901 331.691 371.643 336.294 373.228C339.331 374.305 341.146 380.592 338.313 382.535C333.714 385.689 324.666 384.408 319.221 384.374L291.393 384.28L184.389 384.212C169.525 384.194 154.686 384.212 139.811 384.407C131.094 384.521 129.481 374.964 137.379 372.869C139.038 372.429 144.867 372.38 146.949 372.428C165.503 372.856 179.47 358.964 181.518 340.928C181.948 337.148 181.866 333.381 181.847 329.518Z" fill="#0B053A"/>
<path d="M82.9808 172.239C101.211 170.759 114.915 182.397 129.901 191.574L168.497 215.022C175.026 227.713 188.422 235.765 202.625 235.681C204.526 236.853 206.425 238.028 208.323 239.206C215.51 243.585 223.027 247.909 229.965 252.688C232.879 254.696 235.235 258.675 236.965 261.727L154.597 261.638L0.397827 261.693L0.388062 222.574C15.991 212.439 31.4977 202.155 46.9066 191.727C57.5255 184.64 70.5069 174.285 82.9808 172.239Z" fill="#0B053A"/>
<path d="M308.847 114.854C327.514 125.631 327.514 152.574 308.847 163.351L221.097 214.014C202.43 224.791 179.097 211.32 179.097 189.765L179.097 88.4402C179.097 66.8858 202.43 53.4143 221.097 64.1915L308.847 114.854Z" fill="white"/>
</svg>
