<svg width="676" height="553" viewBox="0 0 676 553" fill="none" xmlns="http://www.w3.org/2000/svg">
<path d="M17.702 0.169306C27.38 -0.433694 30.078 1.84031 39.431 3.77131C45.395 5.00231 52.042 6.20331 58.077 7.25031C84.452 11.9083 110.944 15.8793 137.526 19.1583C237.754 30.8163 338.813 33.6533 439.537 27.6383C501.413 24.1593 563.018 16.9113 624.012 5.93731C628.68 5.05931 633.204 4.2193 637.831 3.1453C641.847 2.2133 647.249 0.406311 651.27 0.0753114C654.614 -0.202689 657.977 0.291305 661.1 1.5183C666.535 3.7223 670.863 8.0083 673.12 13.4213C677.414 24.0173 671.828 33.0043 669.863 43.1763C665.471 65.9133 662.502 89.3363 660.415 112.399C651.807 209.868 650.827 307.861 657.485 405.483C660.132 441.131 663.476 479.354 671.252 514.369C673.297 523.577 678.037 530.188 673.273 540.156C670.045 546.912 665.912 549.837 659.193 552.35C657.313 552.698 653.711 553.189 651.919 552.76C634.137 548.5 616.528 545.749 598.441 543.073C550.6 535.899 502.468 530.817 454.184 527.84C360.232 521.937 265.966 523.234 172.212 531.722C135.808 534.842 99.524 539.236 63.427 544.896C53.115 546.504 41.081 548.002 31.068 551.331C18.328 555.567 5.22098 551.224 0.904978 537.504C-1.75202 529.055 2.10198 521.683 4.00498 513.535C5.57198 506.829 7.16199 499.717 8.26799 492.878C16.603 439.344 19.407 385.661 20.849 331.583C22.827 266.056 21.298 200.469 16.27 135.104C14.231 109.833 11.741 81.4853 7.67398 56.4793C6.82898 51.1973 5.71798 45.9623 4.34498 40.7933C2.86998 35.2373 1.02399 29.9783 0.433985 24.2233C-0.810015 12.0813 6.17597 3.32131 17.702 0.169306Z" fill="#4074D5"/>
<path d="M457.578 379.226C443.876 386.096 431.313 391.642 416.46 395.923C352.734 414.29 273.995 409.777 215.088 378.01C189.609 364.023 164.463 342.418 156.476 313.616C138.31 248.105 206.02 205.04 260.291 190.314C323.143 173.259 405.103 177.008 462.606 209.466C467.201 211.791 472.5 215.647 476.723 218.707C494.263 231.416 510.807 248.198 517.652 269.257C524.174 289.319 521.819 310.056 512.217 328.717C501.562 349.426 478.555 369.672 457.578 379.226Z" fill="white"/>
<path d="M331.897 208.274C378.909 205.148 419.576 240.673 422.797 287.679C426.017 334.684 390.574 375.423 343.575 378.738C296.442 382.063 255.561 346.496 252.332 299.357C249.102 252.217 284.751 211.408 331.897 208.274Z" fill="#4074D5"/>
<path d="M316.122 253.12C317.358 253.048 318.665 252.938 319.899 253.079C322.532 253.378 376.539 285.971 378.753 288.707C380.09 290.36 380.68 293.117 380.168 295.183C378.909 300.262 359.573 311.046 354.671 314.235C349.759 317.351 321.915 336.286 318.37 336.006C316.597 335.866 315.192 334.865 314.093 333.532C313.102 332.33 312.79 331.298 312.625 329.778C311.428 318.721 312.267 302.181 312.228 290.686C312.197 281.453 311.209 266.875 312.446 258.132C312.792 255.688 314.254 254.505 316.122 253.12Z" fill="white"/>
<path d="M462.606 209.466C463.165 202.3 466.468 193.268 468.683 186.174C477.755 157.118 491.168 133.643 510.707 110.267C524.662 92.2033 545.345 75.7593 569.285 76.3263C579.538 76.5683 590.794 83.4833 597.343 91.3503C614.716 112.217 610.973 144.403 610.855 170.038L610.613 252.995L610.818 373.167L610.801 409.469C610.779 432.535 611.379 454.621 591.888 471.248C574.186 486.348 548.124 483.306 529.066 472.481C525.452 470.428 521.965 467.497 518.409 465.298C484.435 445.125 468.164 416.11 457.578 379.226C478.555 369.672 501.562 349.426 512.217 328.717C521.819 310.056 524.174 289.319 517.652 269.257C510.807 248.198 494.263 231.416 476.723 218.707C472.5 215.647 467.201 211.791 462.606 209.466Z" fill="white"/>
<path d="M80.638 315.164C87.609 314.815 98.041 316.911 103.365 321.666C108.537 326.783 112.401 333.953 116.484 340C154.907 396.91 219.228 433.648 286.052 445.824C296.279 447.688 305.789 447.889 316.26 448.67C321.349 451.91 325.092 456.32 326.343 462.359C327.399 467.593 326.301 473.033 323.295 477.447C320.191 481.996 315.995 484.265 310.685 485.234C298.433 485.852 283.482 485.409 271.017 485.349L202.871 485.107L147.101 485.378C137.542 485.429 128.017 485.672 118.463 485.304C95.611 484.424 77.599 469.886 69.697 448.777C67.528 442.994 66.109 436.957 65.472 430.813C64.176 417.207 65.294 397.176 64.902 382.98C65.059 367.259 64.412 351.437 65.094 335.734C65.562 324.956 70.711 318.514 80.638 315.164Z" fill="white"/>
<path d="M332.518 70.3173C349.567 69.1053 372.134 73.3653 386.163 83.8573C396.322 91.4543 401.297 104.199 392.064 114.975C380.022 129.029 360.747 132.227 343.265 134.007C324.585 134.432 304.306 132.236 288.815 120.676C278.079 112.664 274.482 98.8733 284.215 88.3393C296.211 75.3543 315.579 71.4763 332.518 70.3173Z" fill="white"/>
</svg>
